<svg width="84" height="85" viewBox="0 0 84 85" fill="none" xmlns="http://www.w3.org/2000/svg">
<g clip-path="url(#clip0_2183_7007)">
<mask id="path-1-inside-1_2183_7007" fill="white">
<path d="M0 8C0 3.58172 3.58172 0 8 0H76C80.4183 0 84 3.58172 84 8V77C84 81.4183 80.4183 85 76 85H8C3.58172 85 0 81.4183 0 77V8Z"/>
</mask>
<path d="M0 8C0 3.58172 3.58172 0 8 0H76C80.4183 0 84 3.58172 84 8V77C84 81.4183 80.4183 85 76 85H8C3.58172 85 0 81.4183 0 77V8Z" fill="#FAF9F5"/>
<path d="M1.13379 42.4123H41.9478V83.6961L1.13379 42.4123Z" fill="#FC4C02"/>
<path d="M1.13379 1.55957L41.9478 42.4123M82.7618 83.6961L41.9478 42.4123M41.9478 42.4123H1.13379L41.9478 83.6961V42.4123Z" stroke="black" stroke-width="1.5"/>
</g>
<path d="M8 1.5H76V-1.5H8V1.5ZM82.5 8V77H85.5V8H82.5ZM76 83.5H8V86.5H76V83.5ZM1.5 77V8H-1.5V77H1.5ZM8 83.5C4.41015 83.5 1.5 80.5899 1.5 77H-1.5C-1.5 82.2467 2.75329 86.5 8 86.5V83.5ZM82.5 77C82.5 80.5899 79.5899 83.5 76 83.5V86.5C81.2467 86.5 85.5 82.2467 85.5 77H82.5ZM76 1.5C79.5899 1.5 82.5 4.41015 82.5 8H85.5C85.5 2.7533 81.2467 -1.5 76 -1.5V1.5ZM8 -1.5C2.7533 -1.5 -1.5 2.75329 -1.5 8H1.5C1.5 4.41015 4.41015 1.5 8 1.5V-1.5Z" fill="black" mask="url(#path-1-inside-1_2183_7007)"/>
<defs>
<clipPath id="clip0_2183_7007">
<path d="M0 8C0 3.58172 3.58172 0 8 0H76C80.4183 0 84 3.58172 84 8V77C84 81.4183 80.4183 85 76 85H8C3.58172 85 0 81.4183 0 77V8Z" fill="white"/>
</clipPath>
</defs>
</svg>
